<svg width="106" height="106" viewBox="0 0 106 106" fill="none" xmlns="http://www.w3.org/2000/svg">
<circle opacity="0.02" cx="53" cy="53" r="44" fill="url(#paint0_linear)"/>
<circle opacity="0.05" cx="53" cy="53" r="23" fill="url(#paint1_linear)"/>
<circle cx="53" cy="53" r="51" stroke="#CFDDFD" stroke-width="3" stroke-linecap="round" stroke-dasharray="3 9"/>
<path d="M54.4136 13.591C54.0374 13.2121 53.5253 12.9993 52.9914 13C52.4574 13.0007 51.946 13.2149 51.5709 13.5949L48.9389 16.2611L42.5809 22.663C41.8069 23.4424 41.8063 24.7003 42.5796 25.4804L45.2248 28.1487C45.6003 28.5275 46.1116 28.7407 46.6451 28.7407C47.1785 28.7407 47.6899 28.5276 48.0654 28.1488L49.1082 27.0969V35C49.1082 36.1046 50.0037 37 51.1082 37H54.8494C55.954 37 56.8494 36.1046 56.8494 35V27.0549L57.9338 28.1487C58.3094 28.5276 58.8207 28.7407 59.3541 28.7407C59.8875 28.7407 60.3988 28.5276 60.7743 28.1489L63.4202 25.4805C64.1936 24.7005 64.1932 23.4428 63.4194 22.6633L54.4136 13.591Z" fill="#EB5757" stroke="#FEEDED" stroke-width="4" stroke-linejoin="round"/>
<path d="M85.6029 74.1399C85.615 74.1237 85.6269 74.1072 85.6386 74.0905C85.9466 73.6504 86.0646 73.105 85.9661 72.577L83.7994 60.9639C83.5996 59.8929 82.5793 59.1789 81.5046 59.358L77.8905 59.9602C77.3607 60.0485 76.8886 60.3462 76.5807 60.7863C76.2727 61.2264 76.1547 61.7718 76.2532 62.2998L76.4729 63.4775L70.2086 59.3321C69.3219 58.7453 68.131 58.955 67.4979 59.8094L65.393 62.6504C65.0663 63.0914 64.9351 63.6473 65.0303 64.1878C65.1255 64.7284 65.4386 65.206 65.8963 65.5089L71.8232 69.4311L70.7398 69.6116C70.21 69.6999 69.7379 69.9976 69.43 70.4377C69.122 70.8777 69.004 71.4232 69.1025 71.9512L69.7397 75.3668C69.9396 76.4378 70.9599 77.1519 72.0346 76.9728L84.3224 74.9251C84.8357 74.8396 85.2947 74.5575 85.6029 74.1399Z" fill="#6FCF97" stroke="#E3FFE3" stroke-width="4" stroke-linejoin="round"/>
<path d="M36.5261 60.3417L29.0901 65.3551L29.4371 63.4604C29.5335 62.9343 29.415 62.3914 29.1083 61.9532C28.8015 61.515 28.332 61.2179 27.8046 61.1284L23.7597 60.4417C22.6807 60.2585 21.6548 60.9766 21.4577 62.0532L19.0327 75.2951C18.9364 75.8213 19.0548 76.3642 19.3616 76.8024C19.3694 76.8135 19.3772 76.8245 19.3852 76.8354C19.6922 77.2608 20.1543 77.5489 20.6723 77.6369L34.4249 79.9718C35.5039 80.155 36.5298 79.4368 36.7269 78.3603L37.4401 74.4656C37.5365 73.9394 37.4181 73.3966 37.1113 72.9584C36.8045 72.5201 36.335 72.2231 35.8076 72.1335L33.8463 71.8005L41.118 66.8979C41.5681 66.5944 41.8755 66.1211 41.9697 65.5866C42.0638 65.0521 41.9367 64.5022 41.6175 64.0633L39.2617 60.8237C38.6283 59.9528 37.419 59.7397 36.5261 60.3417Z" fill="#F2C94C" stroke="#FFF8E3" stroke-width="4" stroke-linejoin="round"/>
<circle cx="53" cy="53" r="16" fill="url(#paint2_linear)" stroke="#E0EAFF" stroke-width="5"/>
<circle cx="53.5" cy="92.5" r="6.5" fill="#56CCF2" stroke="#E5FFFF" stroke-width="3"/>
<circle cx="87" cy="26" r="4" fill="#CFDDFD" stroke="#EAF0FF" stroke-width="3"/>
<circle cx="21" cy="37" r="4" fill="#CFDDFD" stroke="#EAF0FF" stroke-width="3"/>
<defs>
<linearGradient id="paint0_linear" x1="150.103" y1="-129.069" x2="-80.1543" y2="-111.826" gradientUnits="userSpaceOnUse">
<stop stop-color="#609FFF"/>
<stop offset="1" stop-color="#1D4BF0"/>
</linearGradient>
<linearGradient id="paint1_linear" x1="103.759" y1="-42.1724" x2="-16.6034" y2="-33.159" gradientUnits="userSpaceOnUse">
<stop stop-color="#609FFF"/>
<stop offset="1" stop-color="#1D4BF0"/>
</linearGradient>
<linearGradient id="paint2_linear" x1="88.3103" y1="-13.2069" x2="4.58024" y2="-6.93672" gradientUnits="userSpaceOnUse">
<stop stop-color="#609FFF"/>
<stop offset="1" stop-color="#1D4BF0"/>
</linearGradient>
</defs>
</svg>
